<?xml version="1.0" encoding="UTF-8" standalone="no"?>
<!-- Created with Inkscape (http://www.inkscape.org/) -->

<svg
   xmlns:dc="http://purl.org/dc/elements/1.1/"
   xmlns:cc="http://creativecommons.org/ns#"
   xmlns:rdf="http://www.w3.org/1999/02/22-rdf-syntax-ns#"
   xmlns:svg="http://www.w3.org/2000/svg"
   xmlns="http://www.w3.org/2000/svg"
   xmlns:sodipodi="http://sodipodi.sourceforge.net/DTD/sodipodi-0.dtd"
   xmlns:inkscape="http://www.inkscape.org/namespaces/inkscape"
   width="256"
   height="256"
   viewBox="0 0 67.733333 67.733333"
   version="1.1"
   id="svg8"
   inkscape:version="0.92.2 (5c3e80d, 2017-08-06)"
   sodipodi:docname="256.svg"
   inkscape:export-filename="D:\PRO\QT\MT4080\MT4080D_AUTO_TRANS\256.svg.png"
   inkscape:export-xdpi="96.000008"
   inkscape:export-ydpi="96.000008">
  <defs
     id="defs2" />
  <sodipodi:namedview
     id="base"
     pagecolor="#ffffff"
     bordercolor="#666666"
     borderopacity="1.0"
     inkscape:pageopacity="0.0"
     inkscape:pageshadow="2"
     inkscape:zoom="1.8533932"
     inkscape:cx="92.979591"
     inkscape:cy="236.84772"
     inkscape:document-units="px"
     inkscape:current-layer="g4741"
     showgrid="true"
     units="px"
     inkscape:window-width="1857"
     inkscape:window-height="1058"
     inkscape:window-x="55"
     inkscape:window-y="-8"
     inkscape:window-maximized="1"
     showguides="true">
    <inkscape:grid
       type="xygrid"
       id="grid10"
       empspacing="8" />
  </sodipodi:namedview>
  <metadata
     id="metadata5">
    <rdf:RDF>
      <cc:Work
         rdf:about="">
        <dc:format>image/svg+xml</dc:format>
        <dc:type
           rdf:resource="http://purl.org/dc/dcmitype/StillImage" />
        <dc:title></dc:title>
      </cc:Work>
    </rdf:RDF>
  </metadata>
  <g
     inkscape:label="Layer 1"
     inkscape:groupmode="layer"
     id="layer1"
     transform="translate(0,-229.26666)">
    <g
       id="g4741"
       transform="matrix(1.4999999,0,0,1.5000002,0,-148.50006)">
      <path
         d="m 19.546832,290.85307 a 5.6444449,16.923761 0 0 1 -5.808431,-6.75326 5.6444449,16.923761 0 0 1 -0.197427,-18.6696 5.6444449,16.923761 0 0 1 5.654079,-7.84295 l -0.850607,16.73049 z"
         sodipodi:end="4.8636634"
         sodipodi:start="1.3561304"
         sodipodi:ry="16.923761"
         sodipodi:rx="5.6444449"
         sodipodi:cy="274.31775"
         sodipodi:cx="18.344446"
         sodipodi:type="arc"
         style="fill:none;stroke:#000000;stroke-width:0;stroke-miterlimit:4;stroke-dasharray:none;stroke-opacity:1"
         id="path3703" />
      <path
         transform="scale(-1,1)"
         sodipodi:open="true"
         d="m -9.3486116,267.36671 a 7.0555515,7.0555539 0 0 1 -6.1102874,-3.52778 7.0555515,7.0555539 0 0 1 0,-7.05555 7.0555515,7.0555539 0 0 1 6.1102873,-3.52778"
         sodipodi:end="4.712389"
         sodipodi:start="1.5707963"
         sodipodi:ry="7.0555539"
         sodipodi:rx="7.0555515"
         sodipodi:cy="260.31116"
         sodipodi:cx="-9.3486118"
         sodipodi:type="arc"
         id="path4510"
         style="fill:none;fill-opacity:1;stroke:#000000;stroke-width:2.82222211;stroke-miterlimit:4;stroke-dasharray:none;stroke-opacity:1" />
      <path
         transform="scale(-1,1)"
         sodipodi:open="true"
         d="m -9.3486116,281.47776 a 7.0555515,7.0555539 0 0 1 -6.1102874,-3.52777 7.0555515,7.0555539 0 0 1 0,-7.05556 7.0555515,7.0555539 0 0 1 6.1102873,-3.52777"
         sodipodi:end="4.712389"
         sodipodi:start="1.5707963"
         sodipodi:ry="7.0555539"
         sodipodi:rx="7.0555515"
         sodipodi:cy="274.42221"
         sodipodi:cx="-9.3486118"
         sodipodi:type="arc"
         id="path4510-0"
         style="fill:none;fill-opacity:1;stroke:#000000;stroke-width:2.82222211;stroke-miterlimit:4;stroke-dasharray:none;stroke-opacity:1" />
      <path
         transform="scale(-1,1)"
         sodipodi:open="true"
         d="m -9.3486116,295.58888 a 7.0555515,7.0555539 0 0 1 -6.1102874,-3.52778 7.0555515,7.0555539 0 0 1 0,-7.05555 7.0555515,7.0555539 0 0 1 6.1102873,-3.52778"
         sodipodi:end="4.712389"
         sodipodi:start="1.5707963"
         sodipodi:ry="7.0555539"
         sodipodi:rx="7.0555515"
         sodipodi:cy="288.53333"
         sodipodi:cx="-9.3486118"
         sodipodi:type="arc"
         id="path4510-4"
         style="fill:none;fill-opacity:1;stroke:#000000;stroke-width:2.82222211;stroke-miterlimit:4;stroke-dasharray:none;stroke-opacity:1" />
      <path
         sodipodi:open="true"
         d="m 35.806942,267.36662 a 7.0555515,7.0555539 0 0 1 -6.110287,-3.52778 7.0555515,7.0555539 0 0 1 0,-7.05555 7.0555515,7.0555539 0 0 1 6.110287,-3.52778"
         sodipodi:end="4.712389"
         sodipodi:start="1.5707963"
         sodipodi:ry="7.0555539"
         sodipodi:rx="7.0555515"
         sodipodi:cy="260.31107"
         sodipodi:cx="35.806942"
         sodipodi:type="arc"
         id="path4510-7"
         style="fill:none;fill-opacity:1;stroke:#000000;stroke-width:2.82222211;stroke-miterlimit:4;stroke-dasharray:none;stroke-opacity:1" />
      <path
         sodipodi:open="true"
         d="m 35.806942,281.4778 a 7.0555515,7.0555539 0 0 1 -6.110287,-3.52778 7.0555515,7.0555539 0 0 1 0,-7.05556 7.0555515,7.0555539 0 0 1 6.110287,-3.52777"
         sodipodi:end="4.712389"
         sodipodi:start="1.5707963"
         sodipodi:ry="7.0555539"
         sodipodi:rx="7.0555515"
         sodipodi:cy="274.42224"
         sodipodi:cx="35.806942"
         sodipodi:type="arc"
         id="path4510-0-0"
         style="fill:none;fill-opacity:1;stroke:#000000;stroke-width:2.82222211;stroke-miterlimit:4;stroke-dasharray:none;stroke-opacity:1" />
      <path
         sodipodi:open="true"
         d="m 35.806942,295.58879 a 7.0555515,7.0555539 0 0 1 -6.110287,-3.52778 7.0555515,7.0555539 0 0 1 0,-7.05555 7.0555515,7.0555539 0 0 1 6.110287,-3.52778"
         sodipodi:end="4.712389"
         sodipodi:start="1.5707963"
         sodipodi:ry="7.0555539"
         sodipodi:rx="7.0555515"
         sodipodi:cy="288.53323"
         sodipodi:cx="35.806942"
         sodipodi:type="arc"
         id="path4510-4-8"
         style="fill:none;fill-opacity:1;stroke:#000000;stroke-width:2.82222211;stroke-miterlimit:4;stroke-dasharray:none;stroke-opacity:1" />
      <ellipse
         ry="2.8222189"
         rx="2.8222191"
         cy="260.31107"
         cx="9.348609"
         id="path4611"
         style="fill:#000000;fill-opacity:1;stroke:#000000;stroke-width:0;stroke-miterlimit:4;stroke-dasharray:none;stroke-opacity:1" />
      <ellipse
         ry="2.8222189"
         rx="2.8222191"
         cy="288.53333"
         cx="35.806946"
         id="path4611-6"
         style="fill:#000000;fill-opacity:1;stroke:#000000;stroke-width:0;stroke-miterlimit:4;stroke-dasharray:none;stroke-opacity:1" />
      <rect
         y="251.84445"
         x="20.696301"
         height="45.155544"
         width="3.7629638"
         id="rect4650"
         style="fill:#000000;fill-opacity:1;stroke:none;stroke-width:2.84453249;stroke-miterlimit:4;stroke-dasharray:none;stroke-opacity:1" />
      <rect
         y="251.84445"
         x="4.2120615e-008"
         height="2.8222215"
         width="9.366251"
         id="rect4650-1"
         style="fill:#000000;fill-opacity:1;stroke:none;stroke-width:1.12193775;stroke-miterlimit:4;stroke-dasharray:none;stroke-opacity:1" />
      <rect
         y="251.84445"
         x="35.789307"
         height="2.8222215"
         width="9.366251"
         id="rect4650-1-4"
         style="fill:#000000;fill-opacity:1;stroke:none;stroke-width:1.12193775;stroke-miterlimit:4;stroke-dasharray:none;stroke-opacity:1" />
      <rect
         y="294.17776"
         x="35.789307"
         height="2.8222215"
         width="9.366251"
         id="rect4650-1-2"
         style="fill:#000000;fill-opacity:1;stroke:none;stroke-width:1.12193775;stroke-miterlimit:4;stroke-dasharray:none;stroke-opacity:1" />
      <rect
         transform="scale(-1,1)"
         y="294.17776"
         x="-9.366251"
         height="2.8222215"
         width="9.366251"
         id="rect4650-1-8"
         style="fill:#000000;fill-opacity:1;stroke:none;stroke-width:1.12193775;stroke-miterlimit:4;stroke-dasharray:none;stroke-opacity:1" />
    </g>
  </g>
</svg>
