<?xml version="1.0" encoding="UTF-8" standalone="no"?>
<!-- Created with Inkscape (http://www.inkscape.org/) -->

<svg
   xmlns:dc="http://purl.org/dc/elements/1.1/"
   xmlns:cc="http://creativecommons.org/ns#"
   xmlns:rdf="http://www.w3.org/1999/02/22-rdf-syntax-ns#"
   xmlns:svg="http://www.w3.org/2000/svg"
   xmlns="http://www.w3.org/2000/svg"
   xmlns:sodipodi="http://sodipodi.sourceforge.net/DTD/sodipodi-0.dtd"
   xmlns:inkscape="http://www.inkscape.org/namespaces/inkscape"
   width="32"
   height="32"
   viewBox="0 0 8.4666664 8.466667"
   version="1.1"
   id="svg8"
   inkscape:version="0.92.2 (5c3e80d, 2017-08-06)"
   sodipodi:docname="48.svg"
   inkscape:export-filename="D:\PRO\QT\MT4080\MT4080D_AUTO_TRANS\32.svg.png"
   inkscape:export-xdpi="96.000008"
   inkscape:export-ydpi="96.000008">
  <defs
     id="defs2" />
  <sodipodi:namedview
     id="base"
     pagecolor="#ffffff"
     bordercolor="#666666"
     borderopacity="1.0"
     inkscape:pageopacity="0.0"
     inkscape:pageshadow="2"
     inkscape:zoom="22.627417"
     inkscape:cx="7.6112406"
     inkscape:cy="19.247768"
     inkscape:document-units="mm"
     inkscape:current-layer="layer1"
     showgrid="true"
     units="px"
     inkscape:window-width="1857"
     inkscape:window-height="1058"
     inkscape:window-x="55"
     inkscape:window-y="-8"
     inkscape:window-maximized="1"
     showguides="false">
    <inkscape:grid
       type="xygrid"
       id="grid10"
       empspacing="8" />
  </sodipodi:namedview>
  <metadata
     id="metadata5">
    <rdf:RDF>
      <cc:Work
         rdf:about="">
        <dc:format>image/svg+xml</dc:format>
        <dc:type
           rdf:resource="http://purl.org/dc/dcmitype/StillImage" />
        <dc:title></dc:title>
      </cc:Work>
    </rdf:RDF>
  </metadata>
  <g
     inkscape:label="Layer 1"
     inkscape:groupmode="layer"
     id="layer1"
     transform="translate(0,-288.53332)">
    <path
       id="path3703"
       style="fill:none;stroke:#000000;stroke-width:0;stroke-miterlimit:4;stroke-dasharray:none;stroke-opacity:1"
       sodipodi:type="arc"
       sodipodi:cx="3.4395833"
       sodipodi:cy="292.74707"
       sodipodi:rx="1.0583333"
       sodipodi:ry="3.1732059"
       sodipodi:start="1.3561304"
       sodipodi:end="4.8636634"
       d="m 3.6650306,295.84744 a 1.0583333,3.1732059 0 0 1 -1.0890807,-1.26623 1.0583333,3.1732059 0 0 1 -0.037017,-3.50055 1.0583333,3.1732059 0 0 1 1.0601397,-1.47056 l -0.1594888,3.13697 z" />
    <path
       style="fill:none;fill-opacity:1;stroke:#000000;stroke-width:0.52916667;stroke-miterlimit:4;stroke-dasharray:none;stroke-opacity:1"
       id="path4510"
       sodipodi:type="arc"
       sodipodi:cx="-1.8520834"
       sodipodi:cy="290.12082"
       sodipodi:rx="1.3229158"
       sodipodi:ry="1.3229166"
       sodipodi:start="1.5707963"
       sodipodi:end="4.712389"
       d="m -1.8520834,291.44374 a 1.3229158,1.3229166 0 0 1 -1.1456787,-0.66146 1.3229158,1.3229166 0 0 1 0,-1.32292 1.3229158,1.3229166 0 0 1 1.1456787,-0.66146"
       sodipodi:open="true"
       transform="scale(-1,1)" />
    <path
       style="fill:none;fill-opacity:1;stroke:#000000;stroke-width:0.52916667;stroke-miterlimit:4;stroke-dasharray:none;stroke-opacity:1"
       id="path4510-0"
       sodipodi:type="arc"
       sodipodi:cx="-1.8520834"
       sodipodi:cy="292.76666"
       sodipodi:rx="1.3229158"
       sodipodi:ry="1.3229166"
       sodipodi:start="1.5707963"
       sodipodi:end="4.712389"
       d="m -1.8520834,294.08958 a 1.3229158,1.3229166 0 0 1 -1.1456787,-0.66146 1.3229158,1.3229166 0 0 1 0,-1.32292 1.3229158,1.3229166 0 0 1 1.1456787,-0.66145"
       sodipodi:open="true"
       transform="scale(-1,1)" />
    <path
       style="fill:none;fill-opacity:1;stroke:#000000;stroke-width:0.52916667;stroke-miterlimit:4;stroke-dasharray:none;stroke-opacity:1"
       id="path4510-4"
       sodipodi:type="arc"
       sodipodi:cx="-1.8520834"
       sodipodi:cy="295.41248"
       sodipodi:rx="1.3229158"
       sodipodi:ry="1.3229166"
       sodipodi:start="1.5707963"
       sodipodi:end="4.712389"
       d="m -1.8520834,296.73539 a 1.3229158,1.3229166 0 0 1 -1.1456787,-0.66146 1.3229158,1.3229166 0 0 1 0,-1.32291 1.3229158,1.3229166 0 0 1 1.1456787,-0.66146"
       sodipodi:open="true"
       transform="scale(-1,1)" />
    <path
       style="fill:none;fill-opacity:1;stroke:#000000;stroke-width:0.52916667;stroke-miterlimit:4;stroke-dasharray:none;stroke-opacity:1"
       id="path4510-7"
       sodipodi:type="arc"
       sodipodi:cx="6.6145825"
       sodipodi:cy="290.12082"
       sodipodi:rx="1.3229158"
       sodipodi:ry="1.3229166"
       sodipodi:start="1.5707963"
       sodipodi:end="4.712389"
       d="m 6.6145826,291.44374 a 1.3229158,1.3229166 0 0 1 -1.1456787,-0.66146 1.3229158,1.3229166 0 0 1 0,-1.32292 1.3229158,1.3229166 0 0 1 1.1456787,-0.66146"
       sodipodi:open="true" />
    <path
       style="fill:none;fill-opacity:1;stroke:#000000;stroke-width:0.52916667;stroke-miterlimit:4;stroke-dasharray:none;stroke-opacity:1"
       id="path4510-0-0"
       sodipodi:type="arc"
       sodipodi:cx="6.6145825"
       sodipodi:cy="292.76666"
       sodipodi:rx="1.3229158"
       sodipodi:ry="1.3229166"
       sodipodi:start="1.5707963"
       sodipodi:end="4.712389"
       d="m 6.6145826,294.08958 a 1.3229158,1.3229166 0 0 1 -1.1456787,-0.66146 1.3229158,1.3229166 0 0 1 0,-1.32292 1.3229158,1.3229166 0 0 1 1.1456787,-0.66145"
       sodipodi:open="true" />
    <path
       style="fill:none;fill-opacity:1;stroke:#000000;stroke-width:0.52916667;stroke-miterlimit:4;stroke-dasharray:none;stroke-opacity:1"
       id="path4510-4-8"
       sodipodi:type="arc"
       sodipodi:cx="6.6145825"
       sodipodi:cy="295.41248"
       sodipodi:rx="1.3229158"
       sodipodi:ry="1.3229166"
       sodipodi:start="1.5707963"
       sodipodi:end="4.712389"
       d="m 6.6145826,296.73539 a 1.3229158,1.3229166 0 0 1 -1.1456787,-0.66146 1.3229158,1.3229166 0 0 1 0,-1.32291 1.3229158,1.3229166 0 0 1 1.1456787,-0.66146"
       sodipodi:open="true" />
    <ellipse
       style="fill:#000000;fill-opacity:1;stroke:#000000;stroke-width:0;stroke-miterlimit:4;stroke-dasharray:none;stroke-opacity:1"
       id="path4611"
       cx="1.8520837"
       cy="290.12082"
       rx="0.52916604"
       ry="0.52916616" />
    <ellipse
       style="fill:#000000;fill-opacity:1;stroke:#000000;stroke-width:0;stroke-miterlimit:4;stroke-dasharray:none;stroke-opacity:1"
       id="path4611-6"
       cx="6.6145844"
       cy="295.41248"
       rx="0.52916604"
       ry="0.52916616" />
    <rect
       style="fill:#000000;fill-opacity:1;stroke:none;stroke-width:0.46189451;stroke-miterlimit:4;stroke-dasharray:none;stroke-opacity:1"
       id="rect4650"
       width="0.52916664"
       height="8.4666662"
       x="3.96875"
       y="288.53333" />
    <rect
       style="fill:#000000;fill-opacity:1;stroke:none;stroke-width:0.21603137;stroke-miterlimit:4;stroke-dasharray:none;stroke-opacity:1"
       id="rect4650-1"
       width="1.8520833"
       height="0.52916664"
       x="7.9472855e-009"
       y="288.53333" />
    <rect
       style="fill:#000000;fill-opacity:1;stroke:none;stroke-width:0.21603137;stroke-miterlimit:4;stroke-dasharray:none;stroke-opacity:1"
       id="rect4650-1-4"
       width="1.8520833"
       height="0.52916664"
       x="6.6145835"
       y="288.53333" />
    <rect
       style="fill:#000000;fill-opacity:1;stroke:none;stroke-width:0.21603137;stroke-miterlimit:4;stroke-dasharray:none;stroke-opacity:1"
       id="rect4650-1-2"
       width="1.8520833"
       height="0.52916664"
       x="6.6145835"
       y="296.47083" />
    <rect
       style="fill:#000000;fill-opacity:1;stroke:none;stroke-width:0.21603137;stroke-miterlimit:4;stroke-dasharray:none;stroke-opacity:1"
       id="rect4650-1-8"
       width="1.8520833"
       height="0.52916664"
       x="-1.8520833"
       y="296.47083"
       transform="scale(-1,1)" />
  </g>
</svg>
